<?xml version="1.0" encoding="us-ascii" standalone="no"?><svg xmlns="http://www.w3.org/2000/svg" xmlns:xlink="http://www.w3.org/1999/xlink" contentStyleType="text/css" height="827px" preserveAspectRatio="none" style="width:595px;height:827px;background:#FFFFFF;" version="1.1" viewBox="0 0 595 827" width="595px" zoomAndPan="magnify"><defs/><g><!--cluster utils--><g id="cluster_utils"><path d="M8.5,6 L39.5,6 A3.75,3.75 0 0 1 42,8.5 L49,29.6094 L287.5,29.6094 A2.5,2.5 0 0 1 290,32.1094 L290,532.5 A2.5,2.5 0 0 1 287.5,535 L8.5,535 A2.5,2.5 0 0 1 6,532.5 L6,8.5 A2.5,2.5 0 0 1 8.5,6 " fill="none" style="stroke:#000000;stroke-width:1.5;"/><line style="stroke:#000000;stroke-width:1.5;" x1="6" x2="49" y1="29.6094" y2="29.6094"/><text fill="#000000" font-family="sans-serif" font-size="14" font-weight="bold" lengthAdjust="spacing" textLength="30" x="10" y="22.5332">utils</text></g><!--cluster phases--><g id="cluster_phases"><path d="M316.5,382 L368.5,382 A3.75,3.75 0 0 1 371,384.5 L378,405.6094 L572.5,405.6094 A2.5,2.5 0 0 1 575,408.1094 L575,660.5 A2.5,2.5 0 0 1 572.5,663 L316.5,663 A2.5,2.5 0 0 1 314,660.5 L314,384.5 A2.5,2.5 0 0 1 316.5,382 " fill="none" style="stroke:#000000;stroke-width:1.5;"/><line style="stroke:#000000;stroke-width:1.5;" x1="314" x2="378" y1="405.6094" y2="405.6094"/><text fill="#000000" font-family="sans-serif" font-size="14" font-weight="bold" lengthAdjust="spacing" textLength="51" x="318" y="398.5332">phases</text></g><!--cluster artifacts--><g id="cluster_artifacts"><path d="M123.5,704 L181.5,704 A3.75,3.75 0 0 1 184,706.5 L191,727.6094 L380.5,727.6094 A2.5,2.5 0 0 1 383,730.1094 L383,817.5 A2.5,2.5 0 0 1 380.5,820 L123.5,820 A2.5,2.5 0 0 1 121,817.5 L121,706.5 A2.5,2.5 0 0 1 123.5,704 " fill="none" style="stroke:#000000;stroke-width:1.5;"/><line style="stroke:#000000;stroke-width:1.5;" x1="121" x2="191" y1="727.6094" y2="727.6094"/><text fill="#000000" font-family="sans-serif" font-size="14" font-weight="bold" lengthAdjust="spacing" textLength="57" x="125" y="720.5332">artifacts</text></g><!--class Agent--><g id="elem_Agent"><rect codeLine="3" fill="#F1F1F1" height="48" id="Agent" rx="2.5" ry="2.5" style="stroke:#181818;stroke-width:0.5;" width="69" x="51.5" y="42"/><ellipse cx="66.5" cy="58" fill="#B4A7E5" rx="11" ry="11" style="stroke:#181818;stroke-width:1.0;"/><path d="M67.4531,54.6406 L67.4531,61.2969 L69.1719,61.2969 Q69.7813,61.2969 70.0469,61.5313 Q70.3125,61.7656 70.3125,62.1563 Q70.3125,62.5313 70.0469,62.7656 Q69.7813,63 69.1719,63 L64.0313,63 Q63.4219,63 63.1563,62.7656 Q62.8906,62.5313 62.8906,62.1406 Q62.8906,61.7656 63.1563,61.5313 Q63.4219,61.2969 64.0313,61.2969 L65.75,61.2969 L65.75,54.6406 L64.0313,54.6406 Q63.4219,54.6406 63.1563,54.4063 Q62.8906,54.1719 62.8906,53.7813 Q62.8906,53.4063 63.1563,53.1719 Q63.4219,52.9375 64.0313,52.9375 L69.1719,52.9375 Q69.7813,52.9375 70.0469,53.1719 Q70.3125,53.4063 70.3125,53.7813 Q70.3125,54.1719 70.0469,54.4063 Q69.7813,54.6406 69.1719,54.6406 L67.4531,54.6406 Z " fill="#000000"/><text fill="#000000" font-family="sans-serif" font-size="14" font-style="italic" lengthAdjust="spacing" textLength="37" x="80.5" y="63.7285">Agent</text><line style="stroke:#181818;stroke-width:0.5;" x1="52.5" x2="119.5" y1="74" y2="74"/><line style="stroke:#181818;stroke-width:0.5;" x1="52.5" x2="119.5" y1="82" y2="82"/></g><!--class Skill--><g id="elem_Skill"><rect codeLine="4" fill="#F1F1F1" height="136.0469" id="Skill" rx="2.5" ry="2.5" style="stroke:#181818;stroke-width:0.5;" width="117" x="131.5" y="383"/><ellipse cx="173.05" cy="399" fill="#B4A7E5" rx="11" ry="11" style="stroke:#181818;stroke-width:1.0;"/><path d="M174.0031,395.6406 L174.0031,402.2969 L175.7219,402.2969 Q176.3313,402.2969 176.5969,402.5313 Q176.8625,402.7656 176.8625,403.1563 Q176.8625,403.5313 176.5969,403.7656 Q176.3313,404 175.7219,404 L170.5813,404 Q169.9719,404 169.7063,403.7656 Q169.4406,403.5313 169.4406,403.1406 Q169.4406,402.7656 169.7063,402.5313 Q169.9719,402.2969 170.5813,402.2969 L172.3,402.2969 L172.3,395.6406 L170.5813,395.6406 Q169.9719,395.6406 169.7063,395.4063 Q169.4406,395.1719 169.4406,394.7813 Q169.4406,394.4063 169.7063,394.1719 Q169.9719,393.9375 170.5813,393.9375 L175.7219,393.9375 Q176.3313,393.9375 176.5969,394.1719 Q176.8625,394.4063 176.8625,394.7813 Q176.8625,395.1719 176.5969,395.4063 Q176.3313,395.6406 175.7219,395.6406 L174.0031,395.6406 Z " fill="#000000"/><text fill="#000000" font-family="sans-serif" font-size="14" font-style="italic" lengthAdjust="spacing" textLength="26" x="192.95" y="404.7285">Skill</text><line style="stroke:#181818;stroke-width:0.5;" x1="132.5" x2="247.5" y1="415" y2="415"/><text fill="#000000" font-family="sans-serif" font-size="14" lengthAdjust="spacing" textLength="52" x="137.5" y="433.5332">purpose</text><text fill="#000000" font-family="sans-serif" font-size="14" lengthAdjust="spacing" textLength="105" x="137.5" y="451.1426">whatYouReceive</text><text fill="#000000" font-family="sans-serif" font-size="14" lengthAdjust="spacing" textLength="64" x="137.5" y="468.752">whatToDo</text><text fill="#000000" font-family="sans-serif" font-size="14" lengthAdjust="spacing" textLength="76" x="137.5" y="486.3613">antiPatterns</text><text fill="#000000" font-family="sans-serif" font-size="14" lengthAdjust="spacing" textLength="35" x="137.5" y="503.9707">result</text><line style="stroke:#181818;stroke-width:0.5;" x1="132.5" x2="247.5" y1="511.0469" y2="511.0469"/></g><!--class Orchestrator--><g id="elem_Orchestrator"><rect codeLine="12" fill="#F1F1F1" height="153.6563" id="Orchestrator" rx="2.5" ry="2.5" style="stroke:#181818;stroke-width:0.5;" width="114" x="59" y="151"/><ellipse cx="74.9" cy="167" fill="#A9DCDF" rx="11" ry="11" style="stroke:#181818;stroke-width:1.0;"/><path d="M77.0875,168.7656 L72.9469,168.7656 L72.525,169.7969 L72.9469,169.7969 Q73.5563,169.7969 73.8219,170.0313 Q74.0875,170.2656 74.0875,170.6563 Q74.0875,171.0313 73.8219,171.2656 Q73.5563,171.5 72.9469,171.5 L70.65,171.5 Q70.0406,171.5 69.7906,171.2656 Q69.525,171.0313 69.525,170.6406 Q69.525,170.2656 69.8063,170.0313 Q70.0719,169.7813 70.6969,169.7969 L73.3688,163.1406 L72.2594,163.1406 Q71.65,163.1406 71.3844,162.9063 Q71.1188,162.6719 71.1188,162.2813 Q71.1188,161.9063 71.3844,161.6719 Q71.65,161.4375 72.2594,161.4375 L75.9313,161.4375 L79.3219,169.7969 Q79.9156,169.7969 80.1031,169.9375 Q80.4938,170.2031 80.4938,170.6563 Q80.4938,171.0313 80.2281,171.2656 Q79.9781,171.5 79.3688,171.5 L77.0719,171.5 Q76.4625,171.5 76.1969,171.2656 Q75.9313,171.0313 75.9313,170.6406 Q75.9313,170.2656 76.1969,170.0313 Q76.4625,169.7969 77.0719,169.7969 L77.4938,169.7969 L77.0875,168.7656 Z M76.3688,167.0625 L75.0094,163.6875 L73.6344,167.0625 L76.3688,167.0625 Z " fill="#000000"/><text fill="#000000" font-family="sans-serif" font-size="14" font-style="italic" lengthAdjust="spacing" textLength="80" x="89.1" y="172.7285">Orchestrator</text><line style="stroke:#181818;stroke-width:0.5;" x1="60" x2="172" y1="183" y2="183"/><text fill="#000000" font-family="sans-serif" font-size="14" lengthAdjust="spacing" textLength="52" x="65" y="201.5332">purpose</text><text fill="#000000" font-family="sans-serif" font-size="14" lengthAdjust="spacing" textLength="102" x="65" y="219.1426">delegationRules</text><text fill="#000000" font-family="sans-serif" font-size="14" lengthAdjust="spacing" textLength="87" x="65" y="236.752">hardStopRule</text><text fill="#000000" font-family="sans-serif" font-size="14" lengthAdjust="spacing" textLength="76" x="65" y="254.3613">antiPatterns</text><text fill="#000000" font-family="sans-serif" font-size="14" lengthAdjust="spacing" textLength="91" x="65" y="271.9707">taskEscalation</text><text fill="#000000" font-family="sans-serif" font-size="14" font-style="italic" lengthAdjust="spacing" textLength="59" x="65" y="289.5801">workFlow</text><line style="stroke:#181818;stroke-width:0.5;" x1="60" x2="172" y1="296.6563" y2="296.6563"/></g><!--class PhaseOrchestrator--><g id="elem_PhaseOrchestrator"><rect codeLine="23" fill="#F1F1F1" height="65.6094" id="PhaseOrchestrator" rx="2.5" ry="2.5" style="stroke:#181818;stroke-width:0.5;" width="152" x="330" y="418"/><ellipse cx="345" cy="434" fill="#ADD1B2" rx="11" ry="11" style="stroke:#181818;stroke-width:1.0;"/><path d="M347.7656,429.875 Q347.9219,429.6563 348.1094,429.5469 Q348.2969,429.4375 348.5156,429.4375 Q348.8906,429.4375 349.125,429.7031 Q349.3594,429.9531 349.3594,430.5625 L349.3594,432.0156 Q349.3594,432.625 349.125,432.8906 Q348.8906,433.1563 348.5156,433.1563 Q348.1719,433.1563 347.9688,432.9531 Q347.7656,432.7656 347.6563,432.25 Q347.6094,431.8906 347.4219,431.7031 Q347.0938,431.3281 346.4844,431.1094 Q345.875,430.8906 345.25,430.8906 Q344.4844,430.8906 343.8438,431.2188 Q343.2188,431.5469 342.7188,432.2969 Q342.2344,433.0469 342.2344,434.0781 L342.2344,435.1719 Q342.2344,436.4063 343.125,437.2344 Q344.0156,438.0469 345.6094,438.0469 Q346.5469,438.0469 347.2031,437.7969 Q347.5938,437.6406 348.0156,437.2031 Q348.2813,436.9375 348.4219,436.8594 Q348.5781,436.7813 348.7813,436.7813 Q349.1094,436.7813 349.3594,437.0469 Q349.625,437.2969 349.625,437.6406 Q349.625,437.9844 349.2813,438.3906 Q348.7813,438.9688 347.9844,439.2969 Q346.9063,439.75 345.6094,439.75 Q344.0938,439.75 342.8906,439.125 Q341.9063,438.625 341.2188,437.5625 Q340.5313,436.4844 340.5313,435.2031 L340.5313,434.0469 Q340.5313,432.7188 341.1406,431.5781 Q341.7656,430.4219 342.8594,429.8125 Q343.9531,429.1875 345.1875,429.1875 Q345.9219,429.1875 346.5625,429.3594 Q347.2188,429.5156 347.7656,429.875 Z " fill="#000000"/><text fill="#000000" font-family="sans-serif" font-size="14" lengthAdjust="spacing" textLength="120" x="359" y="439.7285">PhaseOrchestrator</text><line style="stroke:#181818;stroke-width:0.5;" x1="331" x2="481" y1="450" y2="450"/><text fill="#000000" font-family="sans-serif" font-size="14" lengthAdjust="spacing" textLength="53" x="336" y="468.5332">workflow</text><line style="stroke:#181818;stroke-width:0.5;" x1="331" x2="481" y1="475.6094" y2="475.6094"/></g><!--class Inception--><g id="elem_Inception"><rect codeLine="26" fill="#F1F1F1" height="48" id="Inception" rx="2.5" ry="2.5" style="stroke:#181818;stroke-width:0.5;" width="89" x="330.5" y="599"/><ellipse cx="345.5" cy="615" fill="#ADD1B2" rx="11" ry="11" style="stroke:#181818;stroke-width:1.0;"/><path d="M348.2656,610.875 Q348.4219,610.6563 348.6094,610.5469 Q348.7969,610.4375 349.0156,610.4375 Q349.3906,610.4375 349.625,610.7031 Q349.8594,610.9531 349.8594,611.5625 L349.8594,613.0156 Q349.8594,613.625 349.625,613.8906 Q349.3906,614.1563 349.0156,614.1563 Q348.6719,614.1563 348.4688,613.9531 Q348.2656,613.7656 348.1563,613.25 Q348.1094,612.8906 347.9219,612.7031 Q347.5938,612.3281 346.9844,612.1094 Q346.375,611.8906 345.75,611.8906 Q344.9844,611.8906 344.3438,612.2188 Q343.7188,612.5469 343.2188,613.2969 Q342.7344,614.0469 342.7344,615.0781 L342.7344,616.1719 Q342.7344,617.4063 343.625,618.2344 Q344.5156,619.0469 346.1094,619.0469 Q347.0469,619.0469 347.7031,618.7969 Q348.0938,618.6406 348.5156,618.2031 Q348.7813,617.9375 348.9219,617.8594 Q349.0781,617.7813 349.2813,617.7813 Q349.6094,617.7813 349.8594,618.0469 Q350.125,618.2969 350.125,618.6406 Q350.125,618.9844 349.7813,619.3906 Q349.2813,619.9688 348.4844,620.2969 Q347.4063,620.75 346.1094,620.75 Q344.5938,620.75 343.3906,620.125 Q342.4063,619.625 341.7188,618.5625 Q341.0313,617.4844 341.0313,616.2031 L341.0313,615.0469 Q341.0313,613.7188 341.6406,612.5781 Q342.2656,611.4219 343.3594,610.8125 Q344.4531,610.1875 345.6875,610.1875 Q346.4219,610.1875 347.0625,610.3594 Q347.7188,610.5156 348.2656,610.875 Z " fill="#000000"/><text fill="#000000" font-family="sans-serif" font-size="14" lengthAdjust="spacing" textLength="57" x="359.5" y="620.7285">Inception</text><line style="stroke:#181818;stroke-width:0.5;" x1="331.5" x2="418.5" y1="631" y2="631"/><line style="stroke:#181818;stroke-width:0.5;" x1="331.5" x2="418.5" y1="639" y2="639"/></g><!--class Elaboration--><g id="elem_Elaboration"><rect codeLine="27" fill="#F1F1F1" height="48" id="Elaboration" rx="2.5" ry="2.5" style="stroke:#181818;stroke-width:0.5;" width="104" x="455" y="599"/><ellipse cx="470" cy="615" fill="#ADD1B2" rx="11" ry="11" style="stroke:#181818;stroke-width:1.0;"/><path d="M472.7656,610.875 Q472.9219,610.6563 473.1094,610.5469 Q473.2969,610.4375 473.5156,610.4375 Q473.8906,610.4375 474.125,610.7031 Q474.3594,610.9531 474.3594,611.5625 L474.3594,613.0156 Q474.3594,613.625 474.125,613.8906 Q473.8906,614.1563 473.5156,614.1563 Q473.1719,614.1563 472.9688,613.9531 Q472.7656,613.7656 472.6563,613.25 Q472.6094,612.8906 472.4219,612.7031 Q472.0938,612.3281 471.4844,612.1094 Q470.875,611.8906 470.25,611.8906 Q469.4844,611.8906 468.8438,612.2188 Q468.2188,612.5469 467.7188,613.2969 Q467.2344,614.0469 467.2344,615.0781 L467.2344,616.1719 Q467.2344,617.4063 468.125,618.2344 Q469.0156,619.0469 470.6094,619.0469 Q471.5469,619.0469 472.2031,618.7969 Q472.5938,618.6406 473.0156,618.2031 Q473.2813,617.9375 473.4219,617.8594 Q473.5781,617.7813 473.7813,617.7813 Q474.1094,617.7813 474.3594,618.0469 Q474.625,618.2969 474.625,618.6406 Q474.625,618.9844 474.2813,619.3906 Q473.7813,619.9688 472.9844,620.2969 Q471.9063,620.75 470.6094,620.75 Q469.0938,620.75 467.8906,620.125 Q466.9063,619.625 466.2188,618.5625 Q465.5313,617.4844 465.5313,616.2031 L465.5313,615.0469 Q465.5313,613.7188 466.1406,612.5781 Q466.7656,611.4219 467.8594,610.8125 Q468.9531,610.1875 470.1875,610.1875 Q470.9219,610.1875 471.5625,610.3594 Q472.2188,610.5156 472.7656,610.875 Z " fill="#000000"/><text fill="#000000" font-family="sans-serif" font-size="14" lengthAdjust="spacing" textLength="72" x="484" y="620.7285">Elaboration</text><line style="stroke:#181818;stroke-width:0.5;" x1="456" x2="558" y1="631" y2="631"/><line style="stroke:#181818;stroke-width:0.5;" x1="456" x2="558" y1="639" y2="639"/></g><!--class UseCase--><g id="elem_UseCase"><rect codeLine="33" fill="#F1F1F1" height="48" id="UseCase" rx="2.5" ry="2.5" style="stroke:#181818;stroke-width:0.5;" width="89" x="145.5" y="748"/><ellipse cx="160.5" cy="764" fill="#ADD1B2" rx="11" ry="11" style="stroke:#181818;stroke-width:1.0;"/><path d="M163.2656,759.875 Q163.4219,759.6563 163.6094,759.5469 Q163.7969,759.4375 164.0156,759.4375 Q164.3906,759.4375 164.625,759.7031 Q164.8594,759.9531 164.8594,760.5625 L164.8594,762.0156 Q164.8594,762.625 164.625,762.8906 Q164.3906,763.1563 164.0156,763.1563 Q163.6719,763.1563 163.4688,762.9531 Q163.2656,762.7656 163.1563,762.25 Q163.1094,761.8906 162.9219,761.7031 Q162.5938,761.3281 161.9844,761.1094 Q161.375,760.8906 160.75,760.8906 Q159.9844,760.8906 159.3438,761.2188 Q158.7188,761.5469 158.2188,762.2969 Q157.7344,763.0469 157.7344,764.0781 L157.7344,765.1719 Q157.7344,766.4063 158.625,767.2344 Q159.5156,768.0469 161.1094,768.0469 Q162.0469,768.0469 162.7031,767.7969 Q163.0938,767.6406 163.5156,767.2031 Q163.7813,766.9375 163.9219,766.8594 Q164.0781,766.7813 164.2813,766.7813 Q164.6094,766.7813 164.8594,767.0469 Q165.125,767.2969 165.125,767.6406 Q165.125,767.9844 164.7813,768.3906 Q164.2813,768.9688 163.4844,769.2969 Q162.4063,769.75 161.1094,769.75 Q159.5938,769.75 158.3906,769.125 Q157.4063,768.625 156.7188,767.5625 Q156.0313,766.4844 156.0313,765.2031 L156.0313,764.0469 Q156.0313,762.7188 156.6406,761.5781 Q157.2656,760.4219 158.3594,759.8125 Q159.4531,759.1875 160.6875,759.1875 Q161.4219,759.1875 162.0625,759.3594 Q162.7188,759.5156 163.2656,759.875 Z " fill="#000000"/><text fill="#000000" font-family="sans-serif" font-size="14" lengthAdjust="spacing" textLength="57" x="174.5" y="769.7285">UseCase</text><line style="stroke:#181818;stroke-width:0.5;" x1="146.5" x2="233.5" y1="780" y2="780"/><line style="stroke:#181818;stroke-width:0.5;" x1="146.5" x2="233.5" y1="788" y2="788"/></g><!--class Vision--><g id="elem_Vision"><rect codeLine="34" fill="#F1F1F1" height="48" id="Vision" rx="2.5" ry="2.5" style="stroke:#181818;stroke-width:0.5;" width="70" x="270" y="748"/><ellipse cx="285" cy="764" fill="#ADD1B2" rx="11" ry="11" style="stroke:#181818;stroke-width:1.0;"/><path d="M287.7656,759.875 Q287.9219,759.6563 288.1094,759.5469 Q288.2969,759.4375 288.5156,759.4375 Q288.8906,759.4375 289.125,759.7031 Q289.3594,759.9531 289.3594,760.5625 L289.3594,762.0156 Q289.3594,762.625 289.125,762.8906 Q288.8906,763.1563 288.5156,763.1563 Q288.1719,763.1563 287.9688,762.9531 Q287.7656,762.7656 287.6563,762.25 Q287.6094,761.8906 287.4219,761.7031 Q287.0938,761.3281 286.4844,761.1094 Q285.875,760.8906 285.25,760.8906 Q284.4844,760.8906 283.8438,761.2188 Q283.2188,761.5469 282.7188,762.2969 Q282.2344,763.0469 282.2344,764.0781 L282.2344,765.1719 Q282.2344,766.4063 283.125,767.2344 Q284.0156,768.0469 285.6094,768.0469 Q286.5469,768.0469 287.2031,767.7969 Q287.5938,767.6406 288.0156,767.2031 Q288.2813,766.9375 288.4219,766.8594 Q288.5781,766.7813 288.7813,766.7813 Q289.1094,766.7813 289.3594,767.0469 Q289.625,767.2969 289.625,767.6406 Q289.625,767.9844 289.2813,768.3906 Q288.7813,768.9688 287.9844,769.2969 Q286.9063,769.75 285.6094,769.75 Q284.0938,769.75 282.8906,769.125 Q281.9063,768.625 281.2188,767.5625 Q280.5313,766.4844 280.5313,765.2031 L280.5313,764.0469 Q280.5313,762.7188 281.1406,761.5781 Q281.7656,760.4219 282.8594,759.8125 Q283.9531,759.1875 285.1875,759.1875 Q285.9219,759.1875 286.5625,759.3594 Q287.2188,759.5156 287.7656,759.875 Z " fill="#000000"/><text fill="#000000" font-family="sans-serif" font-size="14" lengthAdjust="spacing" textLength="38" x="299" y="769.7285">Vision</text><line style="stroke:#181818;stroke-width:0.5;" x1="271" x2="339" y1="780" y2="780"/><line style="stroke:#181818;stroke-width:0.5;" x1="271" x2="339" y1="788" y2="788"/></g><!--link PhaseOrchestrator to Inception--><g id="link_PhaseOrchestrator_Inception"><path codeLine="28" d="M388.77,484.43 C379.73,503.28 369.61,527.83 365,551 C361.84,566.87 363.068,579.0961 366.418,593.0361 " fill="none" id="PhaseOrchestrator-to-Inception" style="stroke:#181818;stroke-width:1.0;stroke-dasharray:7.0,7.0;"/><polygon fill="#181818" points="367.82,598.87,369.6063,589.1845,366.6517,594.0084,361.8278,591.0538,367.82,598.87" style="stroke:#181818;stroke-width:1.0;"/><text fill="#000000" font-family="sans-serif" font-size="13" lengthAdjust="spacing" textLength="72" x="366" y="565.4951">orchestrates</text></g><!--link PhaseOrchestrator to Elaboration--><g id="link_PhaseOrchestrator_Elaboration"><path codeLine="29" d="M425.24,484.38 C445.1,517.8 472.5243,563.9823 490.1243,593.5923 " fill="none" id="PhaseOrchestrator-to-Elaboration" style="stroke:#181818;stroke-width:1.0;stroke-dasharray:7.0,7.0;"/><polygon fill="#181818" points="493.19,598.75,492.0299,588.9697,490.6353,594.4519,485.153,593.0573,493.19,598.75" style="stroke:#181818;stroke-width:1.0;"/><text fill="#000000" font-family="sans-serif" font-size="13" lengthAdjust="spacing" textLength="72" x="475" y="565.4951">orchestrates</text></g><!--reverse link Agent to Orchestrator--><g id="link_Agent_Orchestrator"><path codeLine="39" d="M93.6745,107.9622 C96.6945,124.0822 97.59,128.84 101.73,150.9 " fill="none" id="Agent-backto-Orchestrator" style="stroke:#181818;stroke-width:1.0;"/><polygon fill="none" points="90.36,90.27,87.7771,109.067,99.5719,106.8573,90.36,90.27" style="stroke:#181818;stroke-width:1.0;"/></g><!--reverse link Agent to Skill--><g id="link_Agent_Skill"><path codeLine="40" d="M59.6975,105.459 C49.2675,121.639 46.52,129.02 41,151 C24.34,217.39 14.38,241.95 41,305 C59.39,348.56 97.98,385.51 131.27,411.21 " fill="none" id="Agent-backto-Skill" style="stroke:#181818;stroke-width:1.0;"/><polygon fill="none" points="69.45,90.33,54.6545,102.2082,64.7405,108.7099,69.45,90.33" style="stroke:#181818;stroke-width:1.0;"/></g><!--link Orchestrator to Skill--><g id="link_Orchestrator_Skill"><path codeLine="41" d="M141.47,305.06 C149.91,330.28 157.345,352.4705 165.555,376.9905 " fill="none" id="Orchestrator-to-Skill" style="stroke:#181818;stroke-width:1.0;stroke-dasharray:7.0,7.0;"/><polygon fill="#181818" points="167.46,382.68,168.3955,372.8757,165.8725,377.9387,160.8094,375.4157,167.46,382.68" style="stroke:#181818;stroke-width:1.0;"/><text fill="#000000" font-family="sans-serif" font-size="13" lengthAdjust="spacing" textLength="71" x="159" y="349.4951">delegates to</text></g><!--link Orchestrator to Orchestrator--><g id="link_Orchestrator_Orchestrator"><path codeLine="42" d="M173.05,208.13 C192.43,208.02 208,214.65 208,228 C208,241.35 198.4299,248.0141 179.0499,247.9041 " fill="none" id="Orchestrator-to-Orchestrator" style="stroke:#181818;stroke-width:1.0;stroke-dasharray:7.0,7.0;"/><polygon fill="#181818" points="173.05,247.87,182.0272,251.921,178.0499,247.8984,182.0726,243.9211,173.05,247.87" style="stroke:#181818;stroke-width:1.0;"/><text fill="#000000" font-family="sans-serif" font-size="13" lengthAdjust="spacing" textLength="71" x="214" y="233.4951">delegates to</text></g><!--reverse link Orchestrator to PhaseOrchestrator--><g id="link_Orchestrator_PhaseOrchestrator"><path codeLine="43" d="M187.6072,283.5695 C243.7372,326.3395 313.62,379.6 363.86,417.89 " fill="none" id="Orchestrator-backto-PhaseOrchestrator" style="stroke:#181818;stroke-width:1.0;"/><polygon fill="none" points="173.29,272.66,183.9708,288.3419,191.2437,278.7971,173.29,272.66" style="stroke:#181818;stroke-width:1.0;"/></g><!--reverse link Orchestrator to Elaboration--><g id="link_Orchestrator_Elaboration"><path codeLine="44" d="M190.9041,237.4903 C274.3341,249.2403 411.44,280.47 500,374 C561.99,439.48 588.87,485.03 556,569 C551.61,580.2 543.63,590.46 535.36,598.9 " fill="none" id="Orchestrator-backto-Elaboration" style="stroke:#181818;stroke-width:1.0;"/><polygon fill="none" points="173.08,234.98,190.0673,243.4317,191.7409,231.5489,173.08,234.98" style="stroke:#181818;stroke-width:1.0;"/></g><!--reverse link Skill to Inception--><g id="link_Skill_Inception"><path codeLine="45" d="M261.7933,517.9699 C295.8733,549.2899 323.85,575 349.76,598.81 " fill="none" id="Skill-backto-Inception" style="stroke:#181818;stroke-width:1.0;stroke-dasharray:7.0,7.0;"/><polygon fill="none" points="248.54,505.79,257.7333,522.3877,265.8532,513.5522,248.54,505.79" style="stroke:#181818;stroke-width:1.0;"/></g><!--link Inception to artifacts--><g id="link_Inception_artifacts"><path codeLine="46" d="M375,647.29 C375,657.49 375,670.1619 375,683.4713 C375,690.1259 375,690.94 375,697.6841 " fill="none" id="Inception-to-artifacts" style="stroke:#181818;stroke-width:1.0;stroke-dasharray:7.0,7.0;"/><polygon fill="#181818" points="375,703.6841,379,694.6841,375,698.6841,371,694.6841,375,703.6841" style="stroke:#181818;stroke-width:1.0;"/></g><!--link Elaboration to artifacts--><g id="link_Elaboration_artifacts"><path codeLine="47" d="M486.08,647.29 C467.765,667.69 440.57,697.9775 417.6725,723.4775 C406.2238,736.2275 395.8494,747.7806 388.1966,756.3025 C387.24,757.3677 386.3259,758.3856 385.4575,759.3525 C385.0234,759.836 384.6006,760.3067 384.1898,760.7643 C383.9843,760.993 383.7818,761.2185 383.5823,761.4406 C383.4826,761.5517 387.3926,757.1978 387.2944,757.3072 " fill="none" id="Elaboration-to-artifacts" style="stroke:#181818;stroke-width:1.0;stroke-dasharray:7.0,7.0;"/><polygon fill="#181818" points="383.2854,761.7713,392.2749,757.7478,386.6262,758.0512,386.3228,752.4025,383.2854,761.7713" style="stroke:#181818;stroke-width:1.0;"/></g><!--reverse link Skill to UseCase--><g id="link_Skill_UseCase"><path codeLine="48" d="M190,537.26 C190,608.92 190,700.41 190,747.81 " fill="none" id="Skill-backto-UseCase" style="stroke:#181818;stroke-width:1.0;stroke-dasharray:7.0,7.0;"/><polygon fill="none" points="190,519.26,184,537.26,196,537.26,190,519.26" style="stroke:#181818;stroke-width:1.0;"/></g><!--reverse link Skill to Vision--><g id="link_Skill_Vision"><path codeLine="49" d="M220.3537,536.1935 C246.1837,607.8535 279.55,700.41 296.64,747.81 " fill="none" id="Skill-backto-Vision" style="stroke:#181818;stroke-width:1.0;stroke-dasharray:7.0,7.0;"/><polygon fill="none" points="214.25,519.26,214.7092,538.2281,225.9982,534.159,214.25,519.26" style="stroke:#181818;stroke-width:1.0;"/></g><!--SRC=[VP91RiCW44NtFWKNY0yGHPMgDfMwQfIqbRgSa8cDZ031k5uakNkDiJ6EKxEn_9ZvVFvWW5TG8Aj9ICSk6MkNK8Js31pPSu6AxjYX4bBsbNwPsXhjCFut9T2FhlV8KVnEyQT-rH608h43QcMLYz2YgsKuyPPr7pWwii29SGdEiG_BI_I4j5qmSKA91P3GQbzB7FLBiAS3QUFfiXC2LsqT1zcfH7mP_DmQRQitgPlUR6lNz5cQ4XmEOGRREu_-yUw5pgFGsFIkE9fuUc1R2KTjHqzpuJn_6ZlPckcusUVmk2KHlczAhWQMHFiAQ7gxBuSlqASVoBTmtc7RcMNT8sARwsercLxAkpULpJo5fxOUfjbcIdfUDG5BnTrHOJZvB8G7fMdMmShcckV9MCQOlO-OJPPcETr9P8RG4XHI-mC0]--></g></svg>